<svg xmlns="http://www.w3.org/2000/svg" width="188.562" height="48.836" viewBox="0 0 188.562 48.836">
    <defs>
        <style>
            .cls-1{fill:#a91f23}
        </style>
    </defs>
    <g id="Redesign_Logo_white" transform="translate(-162.3 -234.84)">
        <g id="Group_207" transform="translate(162.3 255.438)">
            <path id="Path_1658" d="M186.99 436.317c0 .158-.089.236-.266.236h-.03q-.947 0-1.922-.044t-1.952-.044q-.858 0-1.789.044t-1.7.044h-.03c-.177 0-.266-.078-.266-.236s.1-.237.3-.237l1.892-.089c.217 0 .325-.129.325-.384v-10.379a2.29 2.29 0 0 0-.577-1.73 2.039 2.039 0 0 0-1.464-.547 3.161 3.161 0 0 0-1.538.37 3.325 3.325 0 0 0-1.138 1.02 4.807 4.807 0 0 0-.695 1.508 6.851 6.851 0 0 0-.237 1.833v7.954a.314.314 0 0 0 .355.355l1.863.089c.217 0 .325.078.325.237s-.089.236-.266.236h-.059q-.947 0-1.73-.044t-1.759-.044q-.858 0-1.789.044t-1.7.044h-.03c-.177 0-.266-.078-.266-.236s.1-.237.3-.237l1.863-.089c.237 0 .355-.129.355-.384v-10.379a2.391 2.391 0 0 0-.547-1.685 1.932 1.932 0 0 0-1.493-.591 3.215 3.215 0 0 0-2.558 1.257 5.264 5.264 0 0 0-1.05 3.474v7.954a.494.494 0 0 0 .059.251c.04.069.129.1.266.1l1.892.089c.2 0 .3.078.3.237s-.089.237-.266.237h-.03q-.77 0-1.685-.044t-1.774-.044q-.976 0-1.981.044t-1.952.044h-.03c-.137 0-.207-.078-.207-.237a.209.209 0 0 1 .237-.237l2.306-.089a.314.314 0 0 0 .355-.355v-11.617a.883.883 0 0 0-.177-.591.786.786 0 0 0-.621-.207h-1.8c-.2 0-.3-.078-.3-.237s.1-.237.3-.237q1.448 0 2.306-.015t1.345-.044c.325-.019.551-.034.68-.044s.241-.015.34-.015a.392.392 0 0 1 .444.443v2.1c0 .04.01.059.03.059s.04-.019.059-.059a4.1 4.1 0 0 1 1.419-2.04 3.6 3.6 0 0 1 2.247-.769 4.633 4.633 0 0 1 2.824.8 4.111 4.111 0 0 1 1.493 2.011c.04.1.078.1.118 0a3.972 3.972 0 0 1 1.478-2.04 3.813 3.813 0 0 1 2.277-.769 4.27 4.27 0 0 1 3.223 1.257 4.507 4.507 0 0 1 1.212 3.267v8.752a.314.314 0 0 0 .355.355l2.247.089c.185-.002.284.078.284.235z" transform="translate(-162.3 -415.234)"/>
            <path id="Path_1659" d="M350.754 432.887c0 .454-.019.921-.059 1.4a3.982 3.982 0 0 1-.325 1.316 2.379 2.379 0 0 1-.769.961 2.3 2.3 0 0 1-1.39.37 3.4 3.4 0 0 1-2.173-.665 2.645 2.645 0 0 1-.9-2.085c0-.04-.01-.064-.03-.074s-.04.015-.059.074a3.722 3.722 0 0 1-1.449 2.04 4.234 4.234 0 0 1-2.454.71 6.3 6.3 0 0 1-1.434-.163 3.711 3.711 0 0 1-1.227-.517 2.739 2.739 0 0 1-.858-.917 2.666 2.666 0 0 1-.325-1.36 3.008 3.008 0 0 1 .325-1.419 4.449 4.449 0 0 1 .843-1.124 6.661 6.661 0 0 1 1.168-.9q.65-.4 1.271-.724.858-.472 1.745-.858t2.129-.917a.64.64 0 0 0 .3-.237.731.731 0 0 0 .059-.325v-2.159a2.4 2.4 0 0 0-.636-1.952 3.637 3.637 0 0 0-2.2-.5 5.48 5.48 0 0 0-1.331.148 4.716 4.716 0 0 0-1.02.37 2.4 2.4 0 0 0-.651.458.663.663 0 0 0-.222.414.44.44 0 0 0 .3.384 4.521 4.521 0 0 1 .621.384 2.042 2.042 0 0 1 .517.532 1.965 1.965 0 0 1-.266 2.2 1.636 1.636 0 0 1-1.109.429 1.765 1.765 0 0 1-1.2-.488 1.859 1.859 0 0 1-.547-1.464 2.983 2.983 0 0 1 .384-1.464 3.82 3.82 0 0 1 1.109-1.227 5.987 5.987 0 0 1 1.759-.858 7.659 7.659 0 0 1 2.306-.325 6.16 6.16 0 0 1 3.4.828 2.824 2.824 0 0 1 1.271 2.543v9.048a1.754 1.754 0 0 0 .3 1.02 1.1 1.1 0 0 0 .976.429.89.89 0 0 0 .754-.384 2.406 2.406 0 0 0 .4-.917 6.6 6.6 0 0 0 .148-1.079c.019-.365.03-.655.03-.872q0-.769-.015-1.331c-.01-.374-.015-.6-.015-.68 0-.177.069-.266.207-.266s.217.089.237.266q.06.415.089.946t.016.981zm-5.618-4.613q-.592.295-1.168.577t-.991.458a5.945 5.945 0 0 0-2.247 1.789 4.132 4.132 0 0 0-.724 3.4 2.574 2.574 0 0 0 .34.828 2.073 2.073 0 0 0 .621.621 1.641 1.641 0 0 0 .917.251 3.414 3.414 0 0 0 1.3-.266 2.231 2.231 0 0 0 1.064-.946 4.875 4.875 0 0 0 .695-1.759 10.419 10.419 0 0 0 .192-2z" transform="translate(-311.427 -415.234)"/>
            <path id="Path_1660" d="M442.039 425.167c0 .137-.108.226-.325.266l-.887.177a5.354 5.354 0 0 0-.769.192 1.349 1.349 0 0 0-.532.355 2.9 2.9 0 0 0-.458.695 11.314 11.314 0 0 0-.488 1.183l-4.169 11.265q-.415 1.093-.887 2.306a19.9 19.9 0 0 1-.828 1.892 4.9 4.9 0 0 1-1.331 1.671 2.6 2.6 0 0 1-1.567.517 2.831 2.831 0 0 1-2-.695 2.323 2.323 0 0 1-.754-1.789 1.636 1.636 0 0 1 .473-1.316 1.606 1.606 0 0 1 1.064-.4 1.677 1.677 0 0 1 1.02.34 1.156 1.156 0 0 1 .458.991 1.464 1.464 0 0 1-.177.784 2.24 2.24 0 0 1-.37.458c-.129.118-.251.222-.37.31a.409.409 0 0 0-.177.34.423.423 0 0 0 .237.414 1.249 1.249 0 0 0 .562.118 2.157 2.157 0 0 0 1.434-.458 5.154 5.154 0 0 0 1.109-1.493c.1-.2.241-.517.429-.961s.41-.98.665-1.612q.177-.444.266-.739a2.143 2.143 0 0 0 .089-.621 2.825 2.825 0 0 0-.059-.562 5.255 5.255 0 0 0-.207-.71l-3.548-11.443c-.078-.237-.148-.424-.207-.562a.867.867 0 0 0-.207-.31.689.689 0 0 0-.3-.148 3.38 3.38 0 0 0-.473-.074l-1.6-.118c-.177 0-.266-.078-.266-.237s.089-.237.266-.237q.592 0 1.552.044t2.262.044q1.271 0 2.277-.044c.67-.03 1.164-.044 1.478-.044.177 0 .266.078.266.237s-.089.237-.266.237l-1.922.118q-.444.029-.444.355a1.743 1.743 0 0 0 .089.473l2.75 9.314c.04.118.078.118.118 0l2.6-7.156a6.2 6.2 0 0 0 .444-1.863.9.9 0 0 0-.34-.813 2.616 2.616 0 0 0-1.079-.31l-1.124-.118c-.177-.019-.266-.1-.266-.237 0-.158.089-.237.266-.237.256 0 .631.015 1.124.044s1.183.044 2.07.044q1.242 0 1.848-.044c.4-.03.705-.044.9-.044.193.004.281.073.281.211z" transform="translate(-387.78 -417.449)"/>
            <path id="Path_1661" d="M543.069 388.59a7.583 7.583 0 0 1-.473 2.6 7.985 7.985 0 0 1-1.316 2.336 6.821 6.821 0 0 1-2.025 1.685 5.254 5.254 0 0 1-2.573.651 3.711 3.711 0 0 1-2.6-.976 5.145 5.145 0 0 1-1.478-2.573l-.059-.237c-.059-.217-.158-.325-.3-.325s-.237.1-.3.3q-.117.444-.266.946l-.3 1.005c-.1.335-.188.655-.266.961s-.148.566-.207.784a.289.289 0 0 1-.3.266.28.28 0 0 1-.177-.074.271.271 0 0 1-.089-.222q0-1.242.015-2.6t.015-2.6v-15.322c0-.276-.129-.414-.384-.414l-1.833-.059c-.177 0-.266-.078-.266-.237s.089-.237.266-.237q1.8 0 3.031-.044t1.641-.044a.078.078 0 0 1 .089.089v5.589q0 1.8-.059 2.853t-.089 1.907c0 .04.01.059.03.059s.04-.019.059-.059a5.008 5.008 0 0 1 1.464-2.366 3.721 3.721 0 0 1 2.587-.946 4.777 4.777 0 0 1 2.5.68 7 7 0 0 1 1.952 1.73 8.059 8.059 0 0 1 1.257 2.351 7.858 7.858 0 0 1 .454 2.543zm-2.75 0a18.819 18.819 0 0 0-.236-3.282 6.053 6.053 0 0 0-.71-2.07 2.59 2.59 0 0 0-1.138-1.064 3.649 3.649 0 0 0-1.493-.3 3.424 3.424 0 0 0-2.927 1.612 9.068 9.068 0 0 0-1.124 5.1 14.439 14.439 0 0 0 .281 3.075 6.329 6.329 0 0 0 .8 2.07 3.221 3.221 0 0 0 1.257 1.168 3.644 3.644 0 0 0 1.656.37 3.907 3.907 0 0 0 1.464-.266A2.527 2.527 0 0 0 539.3 394a5.856 5.856 0 0 0 .754-2.04 17.371 17.371 0 0 0 .265-3.37z" transform="translate(-473.848 -374.16)"/>
            <path id="Path_1662" d="M656.771 431.4a5.97 5.97 0 0 1-.3 1.685 5.764 5.764 0 0 1-2.765 3.371 5.463 5.463 0 0 1-2.706.621 6.653 6.653 0 0 1-1.7-.222 5.476 5.476 0 0 1-1.612-.724 7.1 7.1 0 0 1-2.262-2.454 7.5 7.5 0 0 1-.931-3.844 7.156 7.156 0 0 1 .517-2.661 8.371 8.371 0 0 1 1.375-2.321 7.075 7.075 0 0 1 2.013-1.651 5 5 0 0 1 2.454-.636 4.554 4.554 0 0 1 2.336.621 6.359 6.359 0 0 1 1.833 1.612 7.8 7.8 0 0 1 1.2 2.2 7.168 7.168 0 0 1 .429 2.4.13.13 0 0 1-.148.148h-9.224v.3a16.079 16.079 0 0 0 .473 4.583 2.836 2.836 0 0 0 1.227 1.671 3.978 3.978 0 0 0 2.025.488 5.2 5.2 0 0 0 2.04-.4 4.816 4.816 0 0 0 1.626-1.109 5.627 5.627 0 0 0 1.094-1.656 5.893 5.893 0 0 0 .473-2.07.271.271 0 0 1 .089-.222.28.28 0 0 1 .177-.074c.177 0 .266.1.266.3zm-2.957-2.75a17.145 17.145 0 0 0-.177-2.706 5.239 5.239 0 0 0-.547-1.73 2.143 2.143 0 0 0-.931-.917 3.008 3.008 0 0 0-1.3-.266 3.766 3.766 0 0 0-1.508.281 2.659 2.659 0 0 0-1.124.961 5 5 0 0 0-.71 1.863 15.592 15.592 0 0 0-.237 2.986h6.062a.418.418 0 0 0 .472-.471z" transform="translate(-573.209 -415.404)"/>
        </g>
        <g id="Group_208" transform="translate(279.867 254.965)">
            <path id="Path_1663" d="M973.881 392.072c0 .158-.089.237-.266.237h-.059q-.947 0-1.774-.044t-1.8-.044q-.858 0-1.656.044t-1.567.044h-.03c-.2 0-.3-.078-.3-.237s.1-.237.3-.237l1.656-.089c.216 0 .325-.118.325-.355v-10.407a2.456 2.456 0 0 0-.532-1.656 1.878 1.878 0 0 0-1.508-.621 3.215 3.215 0 0 0-2.558 1.257 5.264 5.264 0 0 0-1.05 3.474v7.954a.314.314 0 0 0 .355.355l1.833.089c.2 0 .3.078.3.237s-.089.237-.266.237h-.03q-.769 0-1.671-.044t-1.759-.044q-.976 0-1.8.044t-1.774.044h-.03c-.177 0-.266-.078-.266-.237s.1-.237.3-.237l1.981-.089c.217 0 .325-.118.325-.355V372.2a.582.582 0 0 0-.177-.473.623.623 0 0 0-.414-.148l-2.188-.03c-.177 0-.266-.078-.266-.237s.1-.237.3-.237q.887 0 1.789-.015t1.626-.044c.484-.019.881-.034 1.2-.044s.492-.015.532-.015a.1.1 0 0 1 .118.118v9.847c0 .04.009.059.03.059s.04-.019.059-.059a4.1 4.1 0 0 1 1.419-2.04 3.6 3.6 0 0 1 2.247-.769 4.977 4.977 0 0 1 1.789.31 4.089 4.089 0 0 1 1.419.9 4.019 4.019 0 0 1 .931 1.419 5.135 5.135 0 0 1 .325 1.892v8.752c0 .237.108.355.325.355l1.981.089c.179.006.276.086.276.242z" transform="translate(-957.5 -370.96)"/>
            <path id="Path_1664" d="M1090.961 426.664a6.7 6.7 0 0 1-.385 2.2 7.941 7.941 0 0 1-1.094 2.085 8.7 8.7 0 0 1-1.523 1.552 7.214 7.214 0 0 1-1.878 1.109 5.545 5.545 0 0 1-3.9 0 7.439 7.439 0 0 1-1.892-1.109 8.515 8.515 0 0 1-1.538-1.552 7.65 7.65 0 0 1-1.079-2.085 6.751 6.751 0 0 1 0-4.406 7.651 7.651 0 0 1 1.079-2.085 8.513 8.513 0 0 1 1.538-1.552 7.437 7.437 0 0 1 1.892-1.109 5.544 5.544 0 0 1 3.9 0 7.212 7.212 0 0 1 1.878 1.109 8.7 8.7 0 0 1 1.523 1.552 7.946 7.946 0 0 1 1.094 2.085 6.705 6.705 0 0 1 .385 2.206zm-2.78 0q0-.858-.074-1.848a12.258 12.258 0 0 0-.222-1.671 6.233 6.233 0 0 0-.68-1.774 2.931 2.931 0 0 0-1.419-1.242 4.156 4.156 0 0 0-1.656-.3 4.245 4.245 0 0 0-1.686.3 2.858 2.858 0 0 0-1.4 1.242 6.477 6.477 0 0 0-.665 1.774 13.8 13.8 0 0 0-.236 1.671q-.089.991-.089 1.848a14.566 14.566 0 0 0 .325 3.193 9.356 9.356 0 0 0 .665 1.937 2.715 2.715 0 0 0 1.4 1.4 3.145 3.145 0 0 0 .769.207 6.429 6.429 0 0 0 .917.059 6.115 6.115 0 0 0 .9-.059 3.151 3.151 0 0 0 .754-.207 2.779 2.779 0 0 0 1.419-1.4 8.921 8.921 0 0 0 .68-1.937 12.142 12.142 0 0 0 .222-1.508q.075-.827.076-1.685z" transform="translate(-1059.588 -412.204)"/>
            <path id="Path_1665" d="M1203.39 433.317c0 .158-.089.237-.266.237h-.029q-.947 0-1.922-.044t-1.951-.044q-.858 0-1.789.044t-1.7.044h-.03c-.177 0-.266-.078-.266-.237s.1-.237.3-.237l1.892-.089c.216 0 .325-.129.325-.384v-10.379a2.29 2.29 0 0 0-.577-1.73 2.039 2.039 0 0 0-1.464-.547 3.162 3.162 0 0 0-1.538.37 3.325 3.325 0 0 0-1.138 1.02 4.805 4.805 0 0 0-.695 1.508 6.85 6.85 0 0 0-.237 1.833v7.954a.314.314 0 0 0 .355.355l1.863.089c.216 0 .325.078.325.237s-.089.237-.266.237h-.059q-.947 0-1.73-.044t-1.759-.044q-.858 0-1.789.044t-1.7.044h-.029c-.177 0-.266-.078-.266-.237s.1-.237.3-.237l1.863-.089c.237 0 .355-.129.355-.384v-10.379a2.392 2.392 0 0 0-.547-1.685 1.932 1.932 0 0 0-1.493-.591 3.215 3.215 0 0 0-2.557 1.257 5.263 5.263 0 0 0-1.05 3.474v7.954a.494.494 0 0 0 .059.251c.04.069.129.1.266.1l1.892.089c.2 0 .3.078.3.237s-.089.237-.266.237h-.03q-.769 0-1.685-.044t-1.774-.044q-.976 0-1.981.044t-1.951.044h-.03c-.137 0-.207-.078-.207-.237a.209.209 0 0 1 .237-.237l2.306-.089a.314.314 0 0 0 .355-.355v-11.617a.883.883 0 0 0-.177-.591.786.786 0 0 0-.621-.207H1179c-.2 0-.3-.078-.3-.237s.1-.237.3-.237q1.448 0 2.306-.015t1.345-.044c.325-.019.551-.034.68-.044s.241-.015.34-.015a.392.392 0 0 1 .443.444v2.1c0 .04.01.059.03.059s.04-.019.059-.059a4.1 4.1 0 0 1 1.419-2.04 3.6 3.6 0 0 1 2.247-.769 4.632 4.632 0 0 1 2.824.8 4.11 4.11 0 0 1 1.493 2.011c.04.1.078.1.118 0a3.972 3.972 0 0 1 1.479-2.04 3.813 3.813 0 0 1 2.277-.769 4.27 4.27 0 0 1 3.223 1.257 4.507 4.507 0 0 1 1.212 3.267v8.752a.314.314 0 0 0 .355.355l2.247.089c.194-.003.293.077.293.234z" transform="translate(-1145.997 -412.204)"/>
            <path id="Path_1666" d="M1366.971 428.4a5.967 5.967 0 0 1-.3 1.685 5.849 5.849 0 0 1-.976 1.863 5.763 5.763 0 0 1-1.789 1.508 5.463 5.463 0 0 1-2.705.621 6.65 6.65 0 0 1-1.7-.222 5.474 5.474 0 0 1-1.611-.724 7.1 7.1 0 0 1-2.262-2.454 7.505 7.505 0 0 1-.931-3.844 7.156 7.156 0 0 1 .518-2.661 8.371 8.371 0 0 1 1.375-2.321 7.075 7.075 0 0 1 2.011-1.656 5 5 0 0 1 2.454-.636 4.554 4.554 0 0 1 2.336.621 6.358 6.358 0 0 1 1.833 1.612 7.794 7.794 0 0 1 1.2 2.2 7.166 7.166 0 0 1 .429 2.4.13.13 0 0 1-.148.148h-9.225v.3a16.075 16.075 0 0 0 .473 4.583 2.836 2.836 0 0 0 1.227 1.671 3.979 3.979 0 0 0 2.026.488 5.2 5.2 0 0 0 2.04-.4 4.818 4.818 0 0 0 1.626-1.109 5.626 5.626 0 0 0 1.094-1.656 5.893 5.893 0 0 0 .473-2.07.271.271 0 0 1 .089-.222.281.281 0 0 1 .177-.074c.177 0 .266.1.266.3zm-2.957-2.75a17.153 17.153 0 0 0-.177-2.706 5.239 5.239 0 0 0-.547-1.73 2.143 2.143 0 0 0-.932-.917 3.011 3.011 0 0 0-1.3-.266 3.765 3.765 0 0 0-1.508.281 2.659 2.659 0 0 0-1.124.961 5 5 0 0 0-.71 1.863 15.6 15.6 0 0 0-.236 2.986h6.062a.418.418 0 0 0 .472-.471z" transform="translate(-1295.976 -412.375)"/>
        </g>
        <g id="Group_209" transform="translate(227.191 234.84)">
            <path id="Path_1667" d="M601.21 260.432l37.043-25.165 6.544 4.379.025-4.781 6.241-.025.05 9.186 24.637 16.508-37.5-18.8z" class="cls-1" transform="translate(-601.21 -234.84)"/>
            <path id="Path_1668" d="M781.962 354.121a14.451 14.451 0 0 0-.631-3.822 15.54 15.54 0 0 0-4.341-6.683 16.2 16.2 0 0 0-6.79-3.316 14.543 14.543 0 0 0-8.041.642 15.031 15.031 0 0 0-6.152 4.3 15.479 15.479 0 0 0-3.247 6.569 16.392 16.392 0 0 0 .906 8.832 13.646 13.646 0 0 0 6.115 6.984 12.13 12.13 0 0 0 6.72 1.66 1 1 0 0 0 1.039-1.063.966.966 0 0 0-.955-.683 14.852 14.852 0 0 1-4.784-1.075 12.332 12.332 0 0 1-3.322-2.133 10.3 10.3 0 0 1-2.7-3.426 14.486 14.486 0 0 1-.822-2.086 14.659 14.659 0 0 1-.547-2.595 14.416 14.416 0 0 1 0-2.47 14.712 14.712 0 0 1 .378-2.286 12.056 12.056 0 0 1 2.624-5.049 12.522 12.522 0 0 1 4.123-3.236 11.294 11.294 0 0 1 4.728-1.311 12.394 12.394 0 0 1 5.559.812 13.407 13.407 0 0 1 5.256 3.708c.26.316.526.662.792 1.038.244.344.463.679.661 1 .213.411.426.855.633 1.331.161.374.3.736.433 1.085a9.174 9.174 0 0 1 .4 1.473 9.063 9.063 0 0 1 .142 1.264 10.349 10.349 0 0 1-.075 2.84 5.392 5.392 0 0 1-1.643 3.266 8.458 8.458 0 0 1-4.406 1.727 22.988 22.988 0 0 1-3.1.179 2.916 2.916 0 0 1-.189-1.69l.4-1.858a2.967 2.967 0 0 0 .349-.5 3.041 3.041 0 0 0 .208-.454 12.653 12.653 0 0 1 .689-2.207c.067-.163.136-.319.207-.472q.384-.685.764-1.369a3.746 3.746 0 0 0 .114-2.011 12.273 12.273 0 0 0-1.246-2.623l-.065-.519c-.03-.062-.077-.155-.142-.265a6.636 6.636 0 0 1-.387-.575.929.929 0 0 1-.047-.51 3.531 3.531 0 0 1 .189-.349c.254-.405.458-.525.586-.868a1.454 1.454 0 0 0 .075-.312l-.379-.491-.166-.843a7.963 7.963 0 0 0-.869.038 3.068 3.068 0 0 1-.483.021 2.516 2.516 0 0 1-.5-.071l-1.523.112a2.958 2.958 0 0 0-.407-.24 2.9 2.9 0 0 0-.461-.176 2.35 2.35 0 0 1 .136.509 2.3 2.3 0 0 1 0 .63 3.515 3.515 0 0 1-.566-.123 3.685 3.685 0 0 1-1.135-.575 2.987 2.987 0 0 0 0 .764 2.929 2.929 0 0 0 .173.67 3.719 3.719 0 0 1 .365.51 3.628 3.628 0 0 1 .226.447c.072.42.133.88.17 1.375.032.413.044.8.044 1.167l-.931.479a7.633 7.633 0 0 0-1.613.8 8.443 8.443 0 0 0-3.785 5.2v1.813c0 1.279.012 2.549.025 3.813a2.94 2.94 0 0 0 .069.656 2.886 2.886 0 0 0 .234.664 2.278 2.278 0 0 0 .511.705 2.309 2.309 0 0 0 .633.415l9.248.112a16.5 16.5 0 0 0 6.229-1.132 6.1 6.1 0 0 0 3.822-4.02 14.473 14.473 0 0 0 .475-4.123zm-14.409 7.314l.01-.177c0-.004.013-.219.015-.226a1.971 1.971 0 0 0 .377-.29 2.03 2.03 0 0 0 .29-.352 2.725 2.725 0 0 0 .251-.5 2.683 2.683 0 0 0 .138-.529 4.963 4.963 0 0 1 .454 1.208 5.036 5.036 0 0 1 .126.906z" class="cls-1" transform="translate(-730.144 -324.455)"/>
        </g>
    </g>
</svg>
